<?xml version="1.0" encoding="UTF-8" standalone="no"?>
<!DOCTYPE svg PUBLIC "-//W3C//DTD SVG 1.1//EN"
 "http://www.w3.org/Graphics/SVG/1.1/DTD/svg11.dtd">
<!-- Generated by graphviz version 2.43.0 (0)
 -->
<!-- Title: %3 Pages: 1 -->
<svg width="720pt" height="33pt"
 viewBox="0.00 0.00 720.00 33.43" xmlns="http://www.w3.org/2000/svg" xmlns:xlink="http://www.w3.org/1999/xlink">
<g id="graph0" class="graph" transform="scale(0.25 0.25) rotate(0) translate(4 129.74)">
<title>%3</title>
<polygon fill="white" stroke="transparent" points="-4,4 -4,-129.74 2876.54,-129.74 2876.54,4 -4,4"/>
<!-- A -->
<g id="node1" class="node">
<title>A</title>
<ellipse fill="none" stroke="black" cx="247.49" cy="-98.87" rx="247.47" ry="26.74"/>
<text text-anchor="middle" x="247.49" y="-102.67" font-family="Times,serif" font-size="14.00">Access Offline Viewer</text>
<text text-anchor="middle" x="247.49" y="-87.67" font-family="Times,serif" font-size="14.00">(irintai_architecture_diagram_full_offline.html)</text>
</g>
<!-- C -->
<g id="node3" class="node">
<title>C</title>
<ellipse fill="none" stroke="black" cx="687.25" cy="-62.87" rx="156.04" ry="26.74"/>
<text text-anchor="middle" x="687.25" y="-66.67" font-family="Times,serif" font-size="14.00">Propose Changes</text>
<text text-anchor="middle" x="687.25" y="-51.67" font-family="Times,serif" font-size="14.00">(Diagram or Documentation)</text>
</g>
<!-- A&#45;&gt;C -->
<g id="edge1" class="edge">
<title>A&#45;&gt;C</title>
<path fill="none" stroke="black" d="M445.28,-82.69C475.65,-80.19 506.6,-77.64 535.74,-75.25"/>
<polygon fill="black" stroke="black" points="536.29,-78.71 545.97,-74.41 535.72,-71.74 536.29,-78.71"/>
</g>
<!-- B -->
<g id="node2" class="node">
<title>B</title>
<ellipse fill="none" stroke="black" cx="247.49" cy="-26.87" rx="166.75" ry="26.74"/>
<text text-anchor="middle" x="247.49" y="-30.67" font-family="Times,serif" font-size="14.00">Read Documentation Website</text>
<text text-anchor="middle" x="247.49" y="-15.67" font-family="Times,serif" font-size="14.00">(index.html and related pages)</text>
</g>
<!-- B&#45;&gt;C -->
<g id="edge2" class="edge">
<title>B&#45;&gt;C</title>
<path fill="none" stroke="black" d="M396.39,-39.03C441.25,-42.72 490.58,-46.78 535.63,-50.48"/>
<polygon fill="black" stroke="black" points="535.52,-53.99 545.77,-51.32 536.09,-47.01 535.52,-53.99"/>
</g>
<!-- D -->
<g id="node4" class="node">
<title>D</title>
<ellipse fill="none" stroke="black" cx="1017.4" cy="-62.87" rx="137.77" ry="26.74"/>
<text text-anchor="middle" x="1017.4" y="-66.67" font-family="Times,serif" font-size="14.00">Backup Current System</text>
<text text-anchor="middle" x="1017.4" y="-51.67" font-family="Times,serif" font-size="14.00">(backup_irintai_docs.bat)</text>
</g>
<!-- C&#45;&gt;D -->
<g id="edge3" class="edge">
<title>C&#45;&gt;D</title>
<path fill="none" stroke="black" d="M843.67,-62.87C852.15,-62.87 860.66,-62.87 869.12,-62.87"/>
<polygon fill="black" stroke="black" points="869.39,-66.37 879.39,-62.87 869.39,-59.37 869.39,-66.37"/>
</g>
<!-- E -->
<g id="node5" class="node">
<title>E</title>
<ellipse fill="none" stroke="black" cx="1321.4" cy="-62.87" rx="130.22" ry="26.74"/>
<text text-anchor="middle" x="1321.4" y="-66.67" font-family="Times,serif" font-size="14.00">Apply Changes</text>
<text text-anchor="middle" x="1321.4" y="-51.67" font-family="Times,serif" font-size="14.00">(Offline Viewer + Docs)</text>
</g>
<!-- D&#45;&gt;E -->
<g id="edge4" class="edge">
<title>D&#45;&gt;E</title>
<path fill="none" stroke="black" d="M1155.7,-62.87C1164.12,-62.87 1172.6,-62.87 1181.02,-62.87"/>
<polygon fill="black" stroke="black" points="1181.27,-66.37 1191.27,-62.87 1181.27,-59.37 1181.27,-66.37"/>
</g>
<!-- F -->
<g id="node6" class="node">
<title>F</title>
<ellipse fill="none" stroke="black" cx="1638.82" cy="-62.87" rx="151.14" ry="26.74"/>
<text text-anchor="middle" x="1638.82" y="-66.67" font-family="Times,serif" font-size="14.00">Update VERSION.txt</text>
<text text-anchor="middle" x="1638.82" y="-51.67" font-family="Times,serif" font-size="14.00">+ Update CHANGELOG.md</text>
</g>
<!-- E&#45;&gt;F -->
<g id="edge5" class="edge">
<title>E&#45;&gt;F</title>
<path fill="none" stroke="black" d="M1451.6,-62.87C1460.1,-62.87 1468.71,-62.87 1477.34,-62.87"/>
<polygon fill="black" stroke="black" points="1477.46,-66.37 1487.46,-62.87 1477.46,-59.37 1477.46,-66.37"/>
</g>
<!-- G -->
<g id="node7" class="node">
<title>G</title>
<ellipse fill="none" stroke="black" cx="1973.93" cy="-62.87" rx="147.57" ry="26.74"/>
<text text-anchor="middle" x="1973.93" y="-66.67" font-family="Times,serif" font-size="14.00">Package New Release</text>
<text text-anchor="middle" x="1973.93" y="-51.67" font-family="Times,serif" font-size="14.00">(auto_packager_irintai.bat)</text>
</g>
<!-- F&#45;&gt;G -->
<g id="edge6" class="edge">
<title>F&#45;&gt;G</title>
<path fill="none" stroke="black" d="M1790.3,-62.87C1798.85,-62.87 1807.46,-62.87 1816.03,-62.87"/>
<polygon fill="black" stroke="black" points="1816.07,-66.37 1826.07,-62.87 1816.07,-59.37 1816.07,-66.37"/>
</g>
<!-- H -->
<g id="node8" class="node">
<title>H</title>
<ellipse fill="none" stroke="black" cx="2367.02" cy="-62.87" rx="209.11" ry="26.74"/>
<text text-anchor="middle" x="2367.02" y="-66.67" font-family="Times,serif" font-size="14.00">Deploy Updated Docs</text>
<text text-anchor="middle" x="2367.02" y="-51.67" font-family="Times,serif" font-size="14.00">(optional: auto_deploy_irintai_docs.bat)</text>
</g>
<!-- G&#45;&gt;H -->
<g id="edge7" class="edge">
<title>G&#45;&gt;H</title>
<path fill="none" stroke="black" d="M2121.95,-62.87C2130.36,-62.87 2138.89,-62.87 2147.49,-62.87"/>
<polygon fill="black" stroke="black" points="2147.6,-66.37 2157.6,-62.87 2147.6,-59.37 2147.6,-66.37"/>
</g>
<!-- I -->
<g id="node9" class="node">
<title>I</title>
<ellipse fill="none" stroke="black" cx="2742.43" cy="-62.87" rx="130.22" ry="26.74"/>
<text text-anchor="middle" x="2742.43" y="-66.67" font-family="Times,serif" font-size="14.00">Distribute New Version</text>
<text text-anchor="middle" x="2742.43" y="-51.67" font-family="Times,serif" font-size="14.00">to Team or Public</text>
</g>
<!-- H&#45;&gt;I -->
<g id="edge8" class="edge">
<title>H&#45;&gt;I</title>
<path fill="none" stroke="black" d="M2576.56,-62.87C2585.11,-62.87 2593.6,-62.87 2601.95,-62.87"/>
<polygon fill="black" stroke="black" points="2602.07,-66.37 2612.07,-62.87 2602.07,-59.37 2602.07,-66.37"/>
</g>
</g>
</svg>
