<?xml version="1.0" encoding="UTF-8" standalone="no"?>
<!DOCTYPE svg PUBLIC "-//W3C//DTD SVG 1.1//EN"
 "http://www.w3.org/Graphics/SVG/1.1/DTD/svg11.dtd">
<!-- Generated by graphviz version 2.43.0 (0)
 -->
<!-- Title: %3 Pages: 1 -->
<svg width="576pt" height="59pt"
 viewBox="0.00 0.00 576.00 58.80" xmlns="http://www.w3.org/2000/svg" xmlns:xlink="http://www.w3.org/1999/xlink">
<g id="graph0" class="graph" transform="scale(0.29 0.29) rotate(0) translate(4 201.74)">
<title>%3</title>
<polygon fill="white" stroke="transparent" points="-4,4 -4,-201.74 2011.32,-201.74 2011.32,4 -4,4"/>
<!-- ROOT -->
<g id="node1" class="node">
<title>ROOT</title>
<ellipse fill="none" stroke="black" cx="765.49" cy="-179.74" rx="122.68" ry="18"/>
<text text-anchor="middle" x="765.49" y="-176.04" font-family="Times,serif" font-size="14.00">IrintAI Assistant Project</text>
</g>
<!-- OV -->
<g id="node2" class="node">
<title>OV</title>
<ellipse fill="none" stroke="black" cx="247.49" cy="-98.87" rx="247.47" ry="26.74"/>
<text text-anchor="middle" x="247.49" y="-102.67" font-family="Times,serif" font-size="14.00">Offline Viewer</text>
<text text-anchor="middle" x="247.49" y="-87.67" font-family="Times,serif" font-size="14.00">(irintai_architecture_diagram_full_offline.html)</text>
</g>
<!-- ROOT&#45;&gt;OV -->
<g id="edge1" class="edge">
<title>ROOT&#45;&gt;OV</title>
<path fill="none" stroke="black" d="M683.69,-166.29C606.95,-154.6 490.32,-136.84 396.97,-122.63"/>
<polygon fill="black" stroke="black" points="397.27,-119.14 386.86,-121.09 396.22,-126.06 397.27,-119.14"/>
</g>
<!-- DOCS -->
<g id="node3" class="node">
<title>DOCS</title>
<ellipse fill="none" stroke="black" cx="645.49" cy="-98.87" rx="132.46" ry="26.74"/>
<text text-anchor="middle" x="645.49" y="-102.67" font-family="Times,serif" font-size="14.00">Documentation Website</text>
<text text-anchor="middle" x="645.49" y="-87.67" font-family="Times,serif" font-size="14.00">(index.html + pages)</text>
</g>
<!-- ROOT&#45;&gt;DOCS -->
<g id="edge2" class="edge">
<title>ROOT&#45;&gt;DOCS</title>
<path fill="none" stroke="black" d="M740.04,-162.01C725.98,-152.77 708.08,-141.01 691.64,-130.21"/>
<polygon fill="black" stroke="black" points="693.49,-127.23 683.21,-124.66 689.64,-133.08 693.49,-127.23"/>
</g>
<!-- TOOLS -->
<g id="node4" class="node">
<title>TOOLS</title>
<ellipse fill="none" stroke="black" cx="886.49" cy="-98.87" rx="90.98" ry="18"/>
<text text-anchor="middle" x="886.49" y="-95.17" font-family="Times,serif" font-size="14.00">Automation Tools</text>
</g>
<!-- ROOT&#45;&gt;TOOLS -->
<g id="edge3" class="edge">
<title>ROOT&#45;&gt;TOOLS</title>
<path fill="none" stroke="black" d="M791.15,-162.01C809.08,-150.33 833.19,-134.61 852.69,-121.9"/>
<polygon fill="black" stroke="black" points="854.81,-124.69 861.28,-116.3 850.99,-118.83 854.81,-124.69"/>
</g>
<!-- TEMPLATES -->
<g id="node5" class="node">
<title>TEMPLATES</title>
<ellipse fill="none" stroke="black" cx="1562.49" cy="-98.87" rx="181.97" ry="18"/>
<text text-anchor="middle" x="1562.49" y="-95.17" font-family="Times,serif" font-size="14.00">Templates (VERSION, CHANGELOG)</text>
</g>
<!-- ROOT&#45;&gt;TEMPLATES -->
<g id="edge4" class="edge">
<title>ROOT&#45;&gt;TEMPLATES</title>
<path fill="none" stroke="black" d="M864.01,-168.99C1006.04,-154.94 1268.73,-128.94 1428.34,-113.15"/>
<polygon fill="black" stroke="black" points="1429.09,-116.59 1438.7,-112.12 1428.4,-109.62 1429.09,-116.59"/>
</g>
<!-- PACKAGER -->
<g id="node6" class="node">
<title>PACKAGER</title>
<ellipse fill="none" stroke="black" cx="338.49" cy="-18" rx="128.88" ry="18"/>
<text text-anchor="middle" x="338.49" y="-14.3" font-family="Times,serif" font-size="14.00">auto_packager_irintai.bat</text>
</g>
<!-- TOOLS&#45;&gt;PACKAGER -->
<g id="edge5" class="edge">
<title>TOOLS&#45;&gt;PACKAGER</title>
<path fill="none" stroke="black" d="M837.2,-83.68C821.13,-79.45 803.15,-75.11 786.49,-72 650.13,-46.57 614.21,-52.48 476.49,-36 465.06,-34.63 453.11,-33.19 441.22,-31.74"/>
<polygon fill="black" stroke="black" points="441.62,-28.26 431.27,-30.52 440.77,-35.21 441.62,-28.26"/>
</g>
<!-- BACKUP -->
<g id="node7" class="node">
<title>BACKUP</title>
<ellipse fill="none" stroke="black" cx="605.49" cy="-18" rx="120.48" ry="18"/>
<text text-anchor="middle" x="605.49" y="-14.3" font-family="Times,serif" font-size="14.00">backup_irintai_docs.bat</text>
</g>
<!-- TOOLS&#45;&gt;BACKUP -->
<g id="edge6" class="edge">
<title>TOOLS&#45;&gt;BACKUP</title>
<path fill="none" stroke="black" d="M836.25,-83.77C789.63,-70.68 720.02,-51.15 669.45,-36.95"/>
<polygon fill="black" stroke="black" points="670.18,-33.52 659.6,-34.19 668.28,-40.26 670.18,-33.52"/>
</g>
<!-- DEPLOY -->
<g id="node8" class="node">
<title>DEPLOY</title>
<ellipse fill="none" stroke="black" cx="886.49" cy="-18" rx="142.17" ry="18"/>
<text text-anchor="middle" x="886.49" y="-14.3" font-family="Times,serif" font-size="14.00">auto_deploy_irintai_docs.bat</text>
</g>
<!-- TOOLS&#45;&gt;DEPLOY -->
<g id="edge7" class="edge">
<title>TOOLS&#45;&gt;DEPLOY</title>
<path fill="none" stroke="black" d="M886.49,-80.76C886.49,-70.73 886.49,-57.84 886.49,-46.42"/>
<polygon fill="black" stroke="black" points="889.99,-46.08 886.49,-36.08 882.99,-46.08 889.99,-46.08"/>
</g>
<!-- LANGGEN -->
<g id="node9" class="node">
<title>LANGGEN</title>
<ellipse fill="none" stroke="black" cx="1231.49" cy="-18" rx="184.67" ry="18"/>
<text text-anchor="middle" x="1231.49" y="-14.3" font-family="Times,serif" font-size="14.00">multi_language_readme_generator.py</text>
</g>
<!-- TOOLS&#45;&gt;LANGGEN -->
<g id="edge8" class="edge">
<title>TOOLS&#45;&gt;LANGGEN</title>
<path fill="none" stroke="black" d="M943.84,-84.76C1000.95,-71.7 1089.05,-51.56 1152.7,-37.01"/>
<polygon fill="black" stroke="black" points="1153.73,-40.37 1162.7,-34.73 1152.17,-33.54 1153.73,-40.37"/>
</g>
<!-- VERSION_TEMPLATE -->
<g id="node10" class="node">
<title>VERSION_TEMPLATE</title>
<ellipse fill="none" stroke="black" cx="1562.49" cy="-18" rx="128.88" ry="18"/>
<text text-anchor="middle" x="1562.49" y="-14.3" font-family="Times,serif" font-size="14.00">VERSION_TEMPLATE.txt</text>
</g>
<!-- TEMPLATES&#45;&gt;VERSION_TEMPLATE -->
<g id="edge9" class="edge">
<title>TEMPLATES&#45;&gt;VERSION_TEMPLATE</title>
<path fill="none" stroke="black" d="M1562.49,-80.76C1562.49,-70.73 1562.49,-57.84 1562.49,-46.42"/>
<polygon fill="black" stroke="black" points="1565.99,-46.08 1562.49,-36.08 1558.99,-46.08 1565.99,-46.08"/>
</g>
<!-- CHANGELOG_TEMPLATE -->
<g id="node11" class="node">
<title>CHANGELOG_TEMPLATE</title>
<ellipse fill="none" stroke="black" cx="1858.49" cy="-18" rx="148.67" ry="18"/>
<text text-anchor="middle" x="1858.49" y="-14.3" font-family="Times,serif" font-size="14.00">CHANGELOG_TEMPLATE.md</text>
</g>
<!-- TEMPLATES&#45;&gt;CHANGELOG_TEMPLATE -->
<g id="edge10" class="edge">
<title>TEMPLATES&#45;&gt;CHANGELOG_TEMPLATE</title>
<path fill="none" stroke="black" d="M1622.74,-81.81C1671.32,-68.87 1739.62,-50.67 1790.21,-37.19"/>
<polygon fill="black" stroke="black" points="1791.32,-40.52 1800.08,-34.56 1789.52,-33.76 1791.32,-40.52"/>
</g>
</g>
</svg>
